<svg xmlns="http://www.w3.org/2000/svg" viewBox="0 0 24 24" id="apache">
  <linearGradient id="a" x1="6" x2="18" y1="12" y2="12" gradientUnits="userSpaceOnUse">
    <stop offset="0" stop-color="#9c27b0"></stop>
    <stop offset="1" stop-color="#ff9800"></stop>
  </linearGradient>
  <path fill="url(#a)" d="M17.926 2.869h.003a5.628 5.628 0 0 1-.1.45 5.695 5.695 0 0 1-.201.599c-.133.343-.307.725-.505 1.109a14.52 14.52 0 0 1-.666 1.162 10.21 10.21 0 0 1-.229.343c-.286.398-.582.672-1.244.976l-2.271.248c.198-.403.39-.784.576-1.144a43.278 43.278 0 0 1 1.268-2.291l.038-.063c.239-.398.459-.749.661-1.059a16.507 16.507 0 0 0-.001 0c.538-.826.94-1.344 1.18-1.634-.427.479-.85 1.01-1.268 1.606l.001.001c-.229.326-.454.667-.679 1.021l-.041.064c-.227.36-.452.734-.673 1.119a46.403 46.403 0 0 0-1.213 2.257v-.001l-.019.037a48.758 48.758 0 0 0-.564 1.148c-.188.393-.373.791-.554 1.19-.184.405-.363.811-.54 1.217-.172.399-.344.798-.509 1.197a110.91 110.91 0 0 0-.97 2.412c-.035.091-.07.182-.102.272-.126.325-.247.647-.366.964L8.04 14.3c.095-.464.21-.93.344-1.398.056-.199.115-.398.178-.597a22.838 22.838 0 0 1 .729-1.933c.16-.372.335-.759.53-1.16l.094-.19c.157-.318.32-.633.487-.945a36.997 36.997 0 0 1 1.223-2.136l.043-.071v.001l.022-.036a44.753 44.753 0 0 1 1.289-1.962 32.124 32.124 0 0 1 1.345-1.804l.155-.191-.001-.001C15.226.965 15.853.337 16.23.114c.776-.458 1.437.613 1.437.613s.521.672.259 2.142zM9.859 16.192l-.724.08c-.022.058-.045.118-.067.18a107.636 107.636 0 0 0-.362 1.008l-.05.143c-.08.228-.15.433-.31.899.264.12.475.435.675.794a1.44 1.44 0 0 0-.467-.99c1.299.059 2.418-.269 2.996-1.217.052-.084.099-.174.142-.268-.264.333-.589.473-1.202.44.903-.403 1.356-.791 1.758-1.433.096-.153.187-.318.282-.503-.791.81-1.707 1.042-2.671.867zm-1.415 1.216.028-.076c.12-.332.245-.673.374-1.02l.088-.238.001-.004-.897-1.77c-.006.021-.01.042-.014.063a13.639 13.639 0 0 0-.233 1.692l-.004.059c-.281-.448-1.031-.886-1.03-.882.537.777.945 1.55 1.006 2.308-.287.059-.682-.027-1.137-.193.475.436.832.556.971.588-.437.025-.891.325-1.349.669.669-.273 1.211-.381 1.598-.293A132.231 132.231 0 0 0 6 24a.536.536 0 0 0 .365-.354 121.105 121.105 0 0 1 2.079-6.238zm6.637-9.91-.015.003-.101.017.017-.008-2.271.248a.272.272 0 0 1-.011.025l-.077.158-.236.489c-.086.179-.172.364-.26.552l-.133.287a79.813 79.813 0 0 0-1.429 3.301 104.734 104.734 0 0 0-1.419 3.67l-.01.028.724-.08-.043-.007c.864-.108 2.014-.752 2.756-1.549.342-.367.652-.8.94-1.307.213-.377.415-.795.606-1.258.167-.405.327-.842.483-1.316a2.59 2.59 0 0 1-.678.234 3.706 3.706 0 0 1-.129.025l-.015.003c-.042.008-.085.014-.13.021l.001-.001c.807-.309 1.314-.907 1.685-1.64a2.878 2.878 0 0 1-.971.424 2.306 2.306 0 0 1-.173.031l-.039.006c.279-.116.515-.248.719-.401.044-.034.087-.067.128-.102a2.385 2.385 0 0 0 .283-.289 2.889 2.889 0 0 0 .289-.414l.077-.151a8.201 8.201 0 0 0 .369-.851l.031-.088c.028-.085.052-.161.07-.227.028-.099.043-.178.053-.235a.956.956 0 0 1-.094.064c-.242.145-.66.276-.997.338z"></path>
</svg>
